<svg width="37" height="37" fill="none" xmlns="http://www.w3.org/2000/svg"><circle cx="18.5" cy="18.5" r="18.5" fill="#E4E4E4"/><g clip-path="url(#clip0_6266_36)"><path d="M29.7 10.602c-.034.092-.032.191-.052.285l-.46 2.152-.765 3.592c-.304 1.425-.61 2.848-.913 4.273-.274 1.287-.55 2.572-.823 3.86-.177.829-.354 1.656-.533 2.486a2.03 2.03 0 01-.207.556c-.255.467-.664.64-1.177.5-.287-.079-.535-.23-.774-.405-1.648-1.212-3.301-2.42-4.951-3.63-.05-.037-.078-.041-.127.007-.866.832-1.735 1.66-2.602 2.492-.19.181-.397.33-.661.377a1.43 1.43 0 01-.242.023c-.034 0-.043-.01-.041-.046l.117-1.623.076-1.087.11-1.538c.02-.301.046-.6.06-.9a.298.298 0 01.108-.233c1.67-1.496 3.34-2.995 5.008-4.494 1.382-1.238 2.76-2.48 4.142-3.718l.517-.465a.571.571 0 00.152-.18c.053-.105.018-.19-.094-.227a.58.58 0 00-.331.007 1.2 1.2 0 00-.333.147l-7.066 4.423c-1.669 1.043-3.337 2.089-5.006 3.133-.035.02-.062.034-.106.022-1.735-.54-3.473-1.08-5.208-1.622a1.55 1.55 0 01-.568-.3c-.26-.222-.285-.505-.067-.77.189-.229.44-.374.706-.489.51-.22 1.034-.404 1.554-.604 3.119-1.198 6.236-2.39 9.352-3.584 2.588-.99 5.177-1.98 7.762-2.971.65-.249 1.301-.5 1.954-.745.241-.092.492-.124.747-.06.393.099.605.368.699.747.018.078.03.159.046.237-.002.122-.002.248-.002.372z" fill="#6B7073"/></g><defs><clipPath id="clip0_6266_36"><path fill="#fff" transform="translate(6.727 7.288)" d="M0 0h22.985v22.985H0z"/></clipPath></defs></svg>