<svg width="38" height="37" fill="none" xmlns="http://www.w3.org/2000/svg"><circle cx="19.261" cy="18.5" r="18.5" fill="#E4E4E4"/><g clip-path="url(#clip0_6266_31)"><path d="M20.916 15.28c0 .841-.005 1.685.002 2.526.002.16.023.328.071.482.085.27.27.36.531.256.152-.06.299-.154.428-.256.482-.383.862-.861 1.22-1.358.954-1.317 1.715-2.744 2.363-4.231.16-.37.389-.662.802-.752.113-.025.23-.037.345-.037a341.14 341.14 0 012.478 0c.133 0 .271.016.402.049.32.082.471.324.418.65-.069.41-.225.788-.404 1.158-.444.918-.97 1.786-1.52 2.644-.46.72-.935 1.427-1.402 2.142a5.658 5.658 0 00-.241.411c-.113.205-.122.423.012.614.158.227.326.455.524.648a28.82 28.82 0 012.151 2.345c.398.49.8.976 1.094 1.537.113.216.205.453.255.69.097.455-.15.779-.611.853a2.33 2.33 0 01-.359.025c-.795.002-1.588-.005-2.383.004-.393.005-.736-.114-1.012-.386a24.25 24.25 0 01-.947-.997c-.675-.747-1.36-1.483-2.16-2.101a3.994 3.994 0 00-.95-.575 1.34 1.34 0 00-.657-.082c-.246.027-.368.13-.411.377-.028.16-.042.324-.042.487-.004.735-.002 1.469-.002 2.204 0 .097.002.193-.011.287-.051.37-.26.568-.7.662a5.23 5.23 0 01-1.44.085c-1.782-.108-3.33-.809-4.733-1.873-1.066-.809-1.935-1.802-2.691-2.9-1.129-1.637-2.136-3.34-2.92-5.168-.37-.861-.698-1.737-.882-2.661a2.486 2.486 0 01-.04-.64c.015-.245.178-.395.408-.461.115-.032.234-.053.354-.053.887-.005 1.772-.002 2.659-.002.416 0 .726.181.892.565.133.31.243.632.363.95.602 1.606 1.333 3.148 2.28 4.582.313.474.646.934 1.071 1.315.129.115.276.22.43.297.294.142.535.018.6-.301.032-.159.048-.325.048-.488.005-1.273.01-2.546 0-3.82-.005-.685-.207-1.31-.65-1.848a3.982 3.982 0 01-.221-.296c-.133-.2-.168-.416-.05-.632.121-.226.323-.322.574-.324.559-.003 1.117 0 1.676 0h2.204c.08 0 .159.004.239.016a.545.545 0 01.492.455c.034.163.05.33.05.499.005.806.003 1.618.003 2.427z" fill="#6B7073"/></g><defs><clipPath id="clip0_6266_31"><path fill="#fff" transform="translate(7.488 7.288)" d="M0 0h22.985v22.985H0z"/></clipPath></defs></svg>